<mxfile host="app.diagrams.net" agent="Mozilla/5.0 (X11; Ubuntu; Linux x86_64; rv:129.0) Gecko/20100101 Firefox/129.0" version="24.7.7">
  <diagram name="Page-1" id="bC6D1DjXQRd-MMzzOgFI">
    <mxGraphModel dx="1368" dy="790" grid="1" gridSize="10" guides="1" tooltips="1" connect="1" arrows="1" fold="1" page="1" pageScale="1" pageWidth="850" pageHeight="1100" math="0" shadow="0">
      <root>
        <mxCell id="0" />
        <mxCell id="1" parent="0" />
        <mxCell id="70s7Ck-FU3Y-pLnGWHpa-1" value="&lt;font style=&quot;font-size: 14px;&quot;&gt;Imaging System&lt;/font&gt;" style="text;html=1;align=center;verticalAlign=middle;whiteSpace=wrap;rounded=0;" vertex="1" parent="1">
          <mxGeometry x="370" y="230" width="60" height="30" as="geometry" />
        </mxCell>
        <mxCell id="70s7Ck-FU3Y-pLnGWHpa-2" value="&lt;font style=&quot;font-size: 14px;&quot;&gt;Frame&lt;/font&gt;" style="text;html=1;align=center;verticalAlign=middle;whiteSpace=wrap;rounded=0;" vertex="1" parent="1">
          <mxGeometry x="370" y="300" width="60" height="30" as="geometry" />
        </mxCell>
        <mxCell id="70s7Ck-FU3Y-pLnGWHpa-3" value="&lt;font style=&quot;font-size: 14px;&quot;&gt;Denoising System&lt;/font&gt;" style="text;html=1;align=center;verticalAlign=middle;whiteSpace=wrap;rounded=0;" vertex="1" parent="1">
          <mxGeometry x="500" y="300" width="60" height="30" as="geometry" />
        </mxCell>
        <mxCell id="70s7Ck-FU3Y-pLnGWHpa-4" value="&lt;font style=&quot;font-size: 14px;&quot;&gt;(Opt)&lt;/font&gt;" style="text;html=1;align=center;verticalAlign=middle;whiteSpace=wrap;rounded=0;" vertex="1" parent="1">
          <mxGeometry x="450" y="300" width="60" height="30" as="geometry" />
        </mxCell>
        <mxCell id="70s7Ck-FU3Y-pLnGWHpa-5" value="&lt;font style=&quot;font-size: 14px;&quot;&gt;Pre-Processing&lt;/font&gt;" style="text;html=1;align=center;verticalAlign=middle;whiteSpace=wrap;rounded=0;" vertex="1" parent="1">
          <mxGeometry x="370" y="360" width="60" height="30" as="geometry" />
        </mxCell>
        <mxCell id="70s7Ck-FU3Y-pLnGWHpa-8" value="&lt;font style=&quot;font-size: 14px;&quot;&gt;&lt;font style=&quot;font-size: 14px;&quot;&gt;Information Pool of &lt;/font&gt;&lt;/font&gt;&lt;font style=&quot;font-size: 14px;&quot;&gt;Target&lt;font style=&quot;font-size: 14px;&quot;&gt; Classes &lt;/font&gt;&lt;/font&gt;" style="text;html=1;align=center;verticalAlign=middle;whiteSpace=wrap;rounded=0;" vertex="1" parent="1">
          <mxGeometry x="210" y="390" width="120" height="30" as="geometry" />
        </mxCell>
        <mxCell id="70s7Ck-FU3Y-pLnGWHpa-9" value="&lt;font style=&quot;font-size: 14px;&quot;&gt;Neural Network&lt;br&gt;&lt;/font&gt;" style="text;html=1;align=center;verticalAlign=middle;whiteSpace=wrap;rounded=0;" vertex="1" parent="1">
          <mxGeometry x="350" y="420" width="100" height="30" as="geometry" />
        </mxCell>
        <mxCell id="70s7Ck-FU3Y-pLnGWHpa-10" value="&lt;font style=&quot;font-size: 14px;&quot;&gt;Class Specific Information&lt;/font&gt;" style="text;html=1;align=center;verticalAlign=middle;whiteSpace=wrap;rounded=0;" vertex="1" parent="1">
          <mxGeometry x="210" y="510" width="90" height="30" as="geometry" />
        </mxCell>
        <mxCell id="70s7Ck-FU3Y-pLnGWHpa-11" value="&lt;font style=&quot;font-size: 14px;&quot;&gt;2D Location Information&lt;br&gt;&lt;/font&gt;" style="text;html=1;align=center;verticalAlign=middle;whiteSpace=wrap;rounded=0;" vertex="1" parent="1">
          <mxGeometry x="350" y="520" width="90" height="30" as="geometry" />
        </mxCell>
      </root>
    </mxGraphModel>
  </diagram>
</mxfile>
